<svg width="38" height="44" viewBox="0 0 38 44" fill="none" xmlns="http://www.w3.org/2000/svg">
<path d="M4.63858 21.7881C4.63858 23.3831 4.90827 24.6408 5.39574 26.0714C4.55204 26.4493 3.96362 27.2944 3.96362 28.278C3.96362 29.6135 5.04528 30.6966 6.38221 30.6966C6.39663 30.6966 6.40961 30.6952 6.42403 30.6952C6.92448 37.0668 14.1673 42.4463 18.7506 42.4463C23.4551 42.4463 30.5767 37.0683 31.0772 30.6952C31.0916 30.6952 31.1046 30.6966 31.119 30.6966C32.4545 30.6966 33.5376 29.6135 33.5376 28.278C33.5376 27.2944 32.9492 26.4493 32.1055 26.0714C32.5944 24.6408 32.8626 23.3831 32.8626 21.7866" stroke="white" stroke-width="2" stroke-linecap="round" stroke-linejoin="round"/>
<path d="M9.07363 22.9866L8.72606 27.009C8.72606 27.009 7.40644 25.186 5.396 26.0701" stroke="white" stroke-width="2" stroke-miterlimit="10" stroke-linecap="round" stroke-linejoin="round"/>
<path d="M28.4682 22.9174L28.8215 27.009C28.8215 27.009 30.1412 25.186 32.1516 26.0701" stroke="white" stroke-width="2" stroke-miterlimit="10" stroke-linecap="round" stroke-linejoin="round"/>
<path d="M13.7217 4.49457C8.35527 5.99447 5.04973 10.285 3.96518 15.6255C2.33404 15.6255 1 16.9596 1 18.5907C1 20.2219 2.25905 21.0093 3.96518 21.5559C19.2079 26.9253 33.5348 21.5559 33.5348 21.5559C35.1645 21.0641 36.5 20.2219 36.5 18.5907C36.5 16.9596 35.166 15.6255 33.5348 15.6255C32.4517 10.285 29.2024 5.99447 23.836 4.49457" stroke="white" stroke-width="2" stroke-miterlimit="10" stroke-linecap="round" stroke-linejoin="round"/>
<path d="M20.405 15.1626H17.1543C15.2578 15.1626 13.7218 13.6252 13.7218 11.7302V4.43258C13.7218 2.53608 15.2592 1.00012 17.1543 1.00012H20.405C22.3015 1.00012 23.8375 2.53752 23.8375 4.43258V11.7302C23.8375 13.6252 22.3001 15.1626 20.405 15.1626Z" stroke="white" stroke-width="2" stroke-miterlimit="10" stroke-linecap="round" stroke-linejoin="round"/>
<path d="M16.9654 35.5367H20.6228" stroke="white" stroke-width="2" stroke-miterlimit="3.864" stroke-linecap="round" stroke-linejoin="round"/>
<path d="M21.406 23.9961C21.406 23.9961 19.8138 24.4115 19.8138 26.5171C19.8138 29.1679 22.7674 31.5576 25.0778 31.5576C27.3883 31.5576 28.7757 30.1543 28.6214 27.0882C28.467 24.0221 26.0023 23.9961 26.0023 23.9961H11.4418C11.4418 23.9961 8.97701 24.0221 8.8227 27.0882C8.66838 30.1543 10.0558 31.5576 12.3662 31.5576C14.6781 31.5576 17.6303 29.1664 17.6303 26.5171C17.6303 24.4129 16.0381 23.9961 16.0381 23.9961" stroke="white" stroke-width="2" stroke-miterlimit="10" stroke-linecap="round" stroke-linejoin="round"/>
</svg>
