<svg width="39" height="46" viewBox="0 0 39 46" fill="none" xmlns="http://www.w3.org/2000/svg">
<path d="M36.1278 1.50526C35.6651 1.22397 35.0626 1.36203 34.7686 1.81671L33.022 4.51763C32.9173 4.67942 32.8617 4.86798 32.8617 5.06065V8.96562C32.8617 9.11767 32.827 9.26771 32.7603 9.40433L27.1275 20.9422C27.058 21.0846 26.9556 21.2084 26.8289 21.3035L19.2161 27.0128C18.8351 27.2985 18.7085 27.8132 18.9134 28.2431L19.5618 29.6031C19.7314 29.9588 19.6762 30.3809 19.421 30.6811L17.1816 33.315C17.0583 33.46 16.8961 33.5669 16.7141 33.6229L13.1901 34.708C12.9422 34.7843 12.7337 34.9539 12.6085 35.1811L10.2367 39.4852C10.0976 39.7375 9.85642 39.9176 9.57494 39.9793L2.29323 41.5752C1.64479 41.7173 1.31225 42.4402 1.62627 43.0251L1.98142 43.6865C2.13007 43.9634 2.40022 44.1543 2.71083 44.2019L7.6344 44.9573C7.81658 44.9852 8.00294 44.9623 8.1729 44.891L14.2745 42.3311C14.4591 42.2537 14.6161 42.1227 14.7254 41.955L16.3339 39.4874C16.4144 39.3639 16.4667 39.224 16.4868 39.0778L16.75 37.1675C16.8181 36.6727 17.2411 36.304 17.7406 36.304H19.1998C19.4148 36.304 19.6241 36.2347 19.7967 36.1064L24.5835 32.5454C24.6268 32.5131 24.6675 32.4774 24.7051 32.4386L29.5702 27.4128C29.6319 27.3491 29.7018 27.2938 29.778 27.2485L31.5112 26.2191C31.9678 25.9479 32.1328 25.3672 31.8871 24.8965L31.7351 24.6056C31.4879 24.132 31.6566 23.5477 32.1182 23.2787L33.2632 22.6115C33.4449 22.5057 33.5886 22.3453 33.6738 22.1531L35.1992 18.7158C35.2633 18.5713 35.2922 18.4137 35.2836 18.2559L35.0389 13.7577C35.032 13.6307 35.0494 13.5036 35.0901 13.3831L36.5348 9.11094C36.5622 9.02975 36.5791 8.94537 36.5851 8.85987L36.8506 5.03525C36.8601 4.89847 36.8976 4.76512 36.9609 4.64346L37.5689 3.47327C37.8115 3.00627 37.6507 2.43112 37.201 2.15773L36.1278 1.50526Z" stroke="white" stroke-width="2" stroke-miterlimit="10" stroke-linecap="round" stroke-linejoin="round"/>
</svg>
