<svg width="37" height="35" viewBox="0 0 37 35" fill="none" xmlns="http://www.w3.org/2000/svg">
<path d="M31.7082 29.4663C32.6172 28.3743 33.3914 27.1667 34.0138 25.8724C35.1071 23.5992 35.7247 21.0539 35.7247 18.3618C35.7247 16.3487 35.3647 14.4247 34.735 12.6259C32.3644 5.86057 25.9386 1 18.363 1C10.7741 1 4.33991 5.87622 1.97765 12.6608C1.35518 14.4487 1 16.3619 1 18.363C1 21.0383 1.60923 23.5703 2.69042 25.8338C3.31651 27.1426 4.09791 28.3634 5.01656 29.4675" stroke="white" stroke-width="2" stroke-linecap="round" stroke-linejoin="round"/>
<path d="M25.0271 31.9671C25.0271 32.7919 24.3589 33.4601 23.5342 33.4601H13.1918C12.367 33.4601 11.6988 32.7919 11.6988 31.9671V29.0293C11.6988 28.2046 12.367 27.5364 13.1918 27.5364H23.5342C24.3589 27.5364 25.0271 28.2046 25.0271 29.0293V31.9671Z" stroke="white" stroke-width="2" stroke-miterlimit="10" stroke-linecap="round" stroke-linejoin="round"/>
<path d="M35.7247 18.9783H31.2013" stroke="white" stroke-width="2" stroke-miterlimit="10" stroke-linecap="round" stroke-linejoin="round"/>
<path d="M5.71128 18.9783H1" stroke="white" stroke-width="2" stroke-miterlimit="10" stroke-linecap="round" stroke-linejoin="round"/>
<path d="M7.39673 24.5792L3.32599 26.9294" stroke="white" stroke-width="2" stroke-miterlimit="10" stroke-linecap="round" stroke-linejoin="round"/>
<path d="M26.9932 3.29968L24.7574 7.17177" stroke="white" stroke-width="2" stroke-miterlimit="10" stroke-linecap="round" stroke-linejoin="round"/>
<path d="M18.3629 1V5.50539" stroke="white" stroke-width="2" stroke-miterlimit="10" stroke-linecap="round" stroke-linejoin="round"/>
<path d="M9.73254 3.29968L12.0141 7.25243" stroke="white" stroke-width="2" stroke-miterlimit="10" stroke-linecap="round" stroke-linejoin="round"/>
<path d="M3.38861 9.60266L7.39675 11.9168" stroke="white" stroke-width="2" stroke-miterlimit="10" stroke-linecap="round" stroke-linejoin="round"/>
<path d="M29.4688 24.6599L33.4528 26.9451" stroke="white" stroke-width="2" stroke-miterlimit="10" stroke-linecap="round" stroke-linejoin="round"/>
<path d="M20.9684 20.0895C20.3543 21.5282 18.6904 22.1977 17.2504 21.5836C15.8116 20.9696 15.1422 19.3056 15.7562 17.8657C16.3703 16.4269 18.0342 15.7574 19.4742 16.3715C20.913 16.9855 21.5824 18.6507 20.9684 20.0895Z" stroke="white" stroke-width="2" stroke-miterlimit="10" stroke-linecap="round" stroke-linejoin="round"/>
<path d="M20.7421 17.4406L30.769 10.9667" stroke="white" stroke-width="2" stroke-miterlimit="10" stroke-linecap="round" stroke-linejoin="round"/>
</svg>
