<svg width="40" height="31" viewBox="0 0 40 31" fill="none" xmlns="http://www.w3.org/2000/svg">
<path d="M10.8226 8.96627C10.8226 8.96627 11.6131 4.49183 13.5864 4.42145C15.5597 4.35106 18.0136 6.7655 18.866 5.41563C19.7198 4.06576 21.2662 3.49765 24.4128 3.14322C27.5594 2.78752 26.2264 0.373088 28.1997 1.15486C30.173 1.93663 33.8525 7.6893 34.0123 8.96753" stroke="white" stroke-width="2" stroke-miterlimit="10" stroke-linecap="round" stroke-linejoin="round"/>
<path d="M31.5981 26.0207C31.5981 27.7389 33.1432 29.1302 35.049 29.1302C36.9549 29.1302 38.5 27.7376 38.5 26.0207C38.5 24.3039 36.9549 22.9113 35.049 22.9113C33.1418 22.9113 31.5981 24.3039 31.5981 26.0207Z" stroke="white" stroke-width="2" stroke-miterlimit="10" stroke-linecap="round" stroke-linejoin="round"/>
<path d="M1 8.96631H4.8654L11.8485 29.1314H14.2073L17.5646 22.3519" stroke="white" stroke-width="2" stroke-linecap="round" stroke-linejoin="round"/>
<path d="M8.02288 18.0848C8.02288 18.0848 28.9211 32.7474 37.2936 11.4498H5.72595" stroke="white" stroke-width="2" stroke-miterlimit="10" stroke-linecap="round" stroke-linejoin="round"/>
</svg>
